<svg width="25" height="25" viewBox="0 0 25 25" fill="none" xmlns="http://www.w3.org/2000/svg">
<path fill-rule="evenodd" clip-rule="evenodd" d="M10.7716 21.6249L20.0676 12.5L10.7716 3.37512C10.4104 2.99467 10.2138 2.49147 10.2232 1.97153C10.2325 1.4516 10.4471 0.955525 10.8217 0.587819C11.1963 0.220113 11.7017 0.00948635 12.2314 0.000312677C12.761 -0.008861 13.2737 0.184134 13.6613 0.53864L24.4021 11.0818C24.7849 11.4581 25 11.9682 25 12.5C25 13.0318 24.7849 13.5419 24.4021 13.9182L23.7478 14.5605L23.2026 15.0956L13.6613 24.4614C13.2737 24.8159 12.761 25.0089 12.2314 24.9997C11.7017 24.9905 11.1963 24.7799 10.8217 24.4122C10.4471 24.0445 10.2325 23.5484 10.2232 23.0285C10.2138 22.5085 10.4104 22.0053 10.7716 21.6249ZM0.548937 21.6249L9.84491 12.5L0.548935 3.37512C0.187782 2.99467 -0.00883293 2.49147 0.000513077 1.97153C0.00985909 1.4516 0.224434 0.955525 0.599035 0.587819C0.973635 0.220113 1.47901 0.00948635 2.0087 0.000312677C2.53838 -0.008861 3.05101 0.184134 3.43859 0.53864L14.1794 11.0818C14.5623 11.4581 14.7773 11.9682 14.7773 12.5C14.7773 13.0318 14.5623 13.5419 14.1794 13.9182L13.5251 14.5605L12.9799 15.0956L3.4386 24.4614C3.05101 24.8159 2.53838 25.0089 2.0087 24.9997C1.47902 24.9905 0.973639 24.7799 0.599037 24.4122C0.224436 24.0445 0.00986099 23.5484 0.000514984 23.0285C-0.00883102 22.5085 0.187784 22.0053 0.548937 21.6249Z" fill="url(#paint0_linear_1093_699)"/>
<defs>
<linearGradient id="paint0_linear_1093_699" x1="-11.7497" y1="-13.1945" x2="30.0627" y2="-11.8162" gradientUnits="userSpaceOnUse">
<stop stop-color="#0048FE"/>
<stop offset="1" stop-color="#851D86"/>
</linearGradient>
</defs>
</svg>
